<?xml version="1.0" standalone="no"?>
<!DOCTYPE svg PUBLIC "-//W3C//DTD SVG 20010904//EN"
 "http://www.w3.org/TR/2001/REC-SVG-20010904/DTD/svg10.dtd">
<svg version="1.0" xmlns="http://www.w3.org/2000/svg"
 width="800.000000pt" height="800.000000pt" viewBox="0 0 800.000000 800.000000"
 preserveAspectRatio="xMidYMid meet">
<metadata>
Created by potrace 1.16, written by Peter Selinger 2001-2019
</metadata>
<g transform="translate(0.000000,800.000000) scale(0.100000,-0.100000)"
fill="#000000" stroke="none">
<path d="M0 4000 l0 -4000 4000 0 4000 0 0 4000 0 4000 -4000 0 -4000 0 0
-4000z m4185 3179 c760 -51 1451 -373 1980 -920 489 -506 784 -1145 866 -1879
15 -135 15 -495 0 -630 -115 -1019 -656 -1879 -1500 -2382 -732 -437 -1612
-541 -2409 -286 -466 149 -859 382 -1201 712 -533 516 -855 1185 -942 1956
-15 135 -15 495 0 630 106 940 564 1730 1315 2264 420 299 977 497 1507 535
165 12 217 12 384 0z"/>
<path d="M3647 6213 c-24 -55 -108 -276 -352 -923 -92 -244 -323 -840 -430
-1110 -41 -102 -115 -291 -165 -420 -50 -129 -97 -249 -105 -267 -8 -17 -15
-34 -15 -38 0 -6 -182 -466 -316 -799 -44 -111 -64 -173 -64 -203 0 -23 -4
-43 -9 -43 -9 0 -20 -43 -23 -87 -1 -13 -5 -23 -8 -23 -3 0 -6 -9 -6 -20 0
-11 5 -20 10 -20 5 0 6 -3 3 -7 -4 -3 4 -12 18 -19 24 -12 60 -9 81 7 6 5 15
5 19 1 5 -4 5 -2 1 5 -4 8 8 16 36 23 51 13 125 48 134 62 3 5 12 7 20 4 8 -3
14 -2 14 3 0 4 6 8 13 8 22 1 41 8 56 21 7 7 19 11 26 8 8 -3 15 1 18 7 3 7
17 13 33 15 15 1 33 7 38 12 6 6 19 10 30 10 17 0 18 2 6 10 -13 8 -12 10 5
11 11 1 27 3 35 4 8 1 21 3 28 4 7 0 10 6 7 11 -3 6 1 11 9 11 9 1 21 3 26 4
6 1 14 3 20 4 5 0 7 8 4 16 -3 8 0 17 8 20 9 4 13 16 10 34 -2 16 2 34 10 42
8 8 13 20 10 28 -2 7 0 23 6 34 12 25 26 78 24 90 -1 4 6 25 17 47 11 22 14
37 8 33 -6 -4 -8 -1 -5 8 3 8 11 31 19 52 7 20 16 37 21 37 4 0 5 7 2 15 -4 8
1 26 10 40 18 27 22 49 5 25 -9 -12 -9 -11 -4 5 4 11 7 28 7 37 0 10 3 20 9
23 5 4 9 21 9 40 0 18 7 40 15 48 8 8 11 17 8 21 -3 3 -1 11 5 19 6 7 13 29
15 48 2 19 8 43 14 54 6 11 9 30 8 43 -1 12 1 22 4 22 3 0 7 19 8 42 2 23 9
45 15 50 7 4 9 8 4 8 -5 0 -2 8 5 17 12 14 12 16 0 8 -11 -6 -12 -5 -5 6 5 8
9 16 9 19 1 3 4 14 7 25 52 166 68 227 63 235 -3 5 -2 10 4 10 6 0 8 7 5 15
-4 8 -2 15 3 15 5 0 9 8 9 18 1 17 8 52 20 102 3 14 6 31 6 38 1 6 4 12 8 12
3 0 7 14 8 32 2 17 6 36 11 42 4 6 8 22 9 35 0 13 5 27 10 30 5 3 8 14 6 24
-1 9 2 17 6 17 5 0 9 8 8 18 0 9 4 31 10 47 5 17 8 38 6 48 -1 9 2 17 8 17 6
0 8 7 5 15 -4 8 -2 17 4 21 6 3 8 12 5 19 -3 8 2 19 9 25 8 7 12 16 9 21 -7
12 6 80 15 75 4 -3 8 14 10 37 1 23 6 43 11 45 5 2 6 10 3 19 -5 12 -3 14 7 8
10 -6 12 -3 7 15 -3 13 -2 31 3 41 5 9 11 31 12 48 1 17 5 31 9 31 4 0 5 10 2
23 -4 18 -3 19 7 7 9 -12 10 -11 5 8 -4 14 0 32 9 47 9 13 16 36 16 50 0 14 5
25 11 25 5 0 8 4 5 9 -9 14 20 21 33 8 6 -6 11 -18 11 -27 0 -9 6 -22 13 -29
8 -10 8 -12 0 -7 -7 4 -6 -4 3 -24 8 -16 16 -39 17 -50 1 -11 5 -20 10 -20 5
0 7 -6 4 -14 -3 -8 -1 -17 6 -20 8 -3 7 -5 -2 -5 -12 -1 -12 -4 1 -18 14 -17
26 -48 35 -97 2 -11 8 -25 14 -33 6 -7 9 -19 6 -27 -3 -8 -2 -16 3 -18 5 -2
10 -10 12 -18 2 -8 7 -18 11 -21 4 -3 9 -16 10 -27 1 -12 4 -22 7 -22 7 0 8
-5 13 -63 2 -21 9 -42 16 -47 8 -4 10 -13 7 -19 -4 -6 -2 -11 5 -11 7 0 9 -3
6 -6 -3 -4 -1 -16 5 -28 7 -11 13 -24 14 -28 1 -5 3 -11 4 -15 1 -5 1 -16 0
-27 -1 -11 3 -15 9 -12 7 4 8 1 5 -8 -4 -10 -1 -16 7 -16 7 0 10 -3 6 -6 -3
-3 3 -26 14 -51 10 -25 17 -49 13 -54 -3 -5 0 -9 5 -9 6 0 11 -9 11 -21 0 -13
4 -18 11 -13 8 5 10 -1 7 -20 -3 -15 -1 -26 6 -26 6 0 4 -5 -4 -10 -11 -7 -11
-10 -2 -10 7 0 10 -4 7 -10 -3 -5 -2 -10 4 -10 6 0 17 -13 26 -29 10 -21 21
-29 34 -26 25 5 73 36 66 43 -3 3 4 12 16 20 11 8 18 20 15 27 -2 7 2 16 10
19 9 3 13 10 9 15 -3 6 4 15 15 21 11 6 18 15 15 21 -4 5 -2 9 3 9 5 0 17 16
26 35 9 19 21 35 27 35 6 0 8 4 4 9 -3 5 6 18 20 29 26 21 34 38 13 27 -7 -4
-6 -1 3 7 9 7 23 27 31 43 9 17 27 42 42 58 14 15 22 27 18 27 -4 0 2 7 12 15
11 8 16 15 11 15 -5 0 6 14 23 31 18 17 32 39 32 48 0 9 9 23 19 31 11 7 18
17 15 22 -3 4 5 12 18 17 13 6 17 10 8 11 -12 0 -11 4 4 15 11 8 16 15 10 15
-5 0 -2 6 7 13 8 7 18 20 22 30 4 11 12 15 18 11 8 -4 9 -3 5 4 -4 6 2 20 14
32 11 11 20 24 20 28 0 4 6 14 13 21 6 6 12 16 12 21 0 4 14 21 30 35 17 15
24 24 18 21 -19 -10 -16 1 7 26 10 13 26 32 35 43 9 11 13 14 9 6 -5 -11 -2
-13 15 -8 19 5 22 2 18 -14 -3 -10 -2 -17 2 -15 7 4 14 -57 14 -121 0 -18 3
-31 7 -28 4 2 7 -13 8 -34 1 -22 6 -51 12 -66 12 -32 13 -48 2 -41 -5 3 -9 -1
-9 -9 0 -8 4 -15 9 -15 5 0 8 -8 6 -17 -1 -10 1 -24 6 -32 7 -11 6 -12 -5 -6
-12 7 -12 6 -1 -7 7 -9 14 -32 14 -50 0 -18 5 -38 10 -45 5 -7 8 -25 7 -40 -2
-15 -1 -33 3 -38 3 -6 4 -19 2 -30 -1 -10 1 -24 5 -30 4 -5 7 -17 6 -25 0 -8
5 -37 12 -64 6 -27 10 -63 7 -80 -5 -24 -3 -28 5 -16 9 12 11 8 11 -20 -1 -19
2 -53 5 -75 4 -22 7 -50 8 -62 0 -13 4 -23 7 -23 8 0 8 0 13 -95 2 -39 8 -80
14 -90 5 -11 9 -32 8 -47 0 -15 2 -25 6 -22 4 2 8 -4 8 -13 -1 -32 10 -113 17
-135 3 -11 8 -37 10 -57 2 -20 6 -52 9 -71 3 -19 7 -54 9 -78 3 -24 9 -49 15
-55 5 -7 8 -34 6 -60 -2 -26 -1 -45 4 -43 4 3 5 -8 3 -25 -3 -18 0 -29 8 -29
8 0 11 -11 8 -29 -2 -17 -1 -28 3 -25 4 2 8 -8 8 -23 0 -25 5 -61 14 -103 2
-8 9 -25 15 -38 7 -12 10 -28 6 -34 -5 -7 -3 -8 6 -3 10 6 12 4 7 -7 -3 -9 1
-25 10 -37 8 -12 12 -28 9 -36 -3 -8 -1 -15 5 -15 6 0 9 -6 7 -12 -3 -7 1 -24
8 -37 7 -14 10 -29 7 -34 -3 -6 -1 -7 5 -3 10 6 30 -57 24 -78 -2 -4 5 -15 15
-23 10 -8 12 -12 6 -8 -7 3 -13 1 -13 -5 0 -6 7 -13 16 -17 8 -3 13 -12 10
-20 -4 -8 -1 -11 5 -7 8 4 9 -1 4 -15 -4 -14 -2 -21 6 -21 7 0 9 -3 6 -7 -4
-3 -1 -13 5 -21 7 -8 11 -28 10 -45 -2 -25 0 -29 9 -17 9 12 10 12 7 -5 -3
-13 9 -33 34 -57 21 -21 38 -35 38 -32 0 4 11 -5 25 -20 13 -14 28 -26 33 -26
4 0 22 -15 39 -32 17 -18 51 -48 75 -66 23 -18 67 -52 97 -77 53 -44 79 -49
104 -23 17 18 14 63 -10 188 -3 14 -6 34 -8 45 -1 11 -5 27 -8 35 -4 8 -8 29
-11 45 -2 17 -5 30 -6 30 -4 0 -11 43 -11 72 -1 21 -5 30 -12 26 -6 -4 -8 2
-5 15 4 12 2 25 -4 28 -5 3 -7 12 -4 19 2 7 2 16 -2 19 -7 7 -10 23 -18 81 -3
22 -10 50 -16 62 -6 12 -8 35 -6 52 2 17 1 32 -3 33 -8 3 -46 165 -55 233 -3
17 -15 80 -28 140 -12 61 -22 120 -21 133 1 12 -1 22 -5 22 -11 0 -30 79 -23
96 3 8 1 20 -4 27 -5 6 -10 26 -12 42 -2 17 -7 35 -12 41 -4 5 -6 22 -3 37 2
15 1 27 -4 27 -4 0 -9 10 -9 23 -1 12 -13 72 -27 132 -13 61 -27 124 -30 140
-6 35 -13 69 -22 105 -3 14 -7 34 -9 45 -8 67 -19 121 -25 130 -7 9 -21 85
-25 131 -1 11 -4 25 -8 30 -5 9 -17 66 -32 159 -2 11 -4 20 -5 20 -4 0 -23
120 -24 152 -1 11 -4 19 -8 16 -5 -2 -7 6 -7 19 1 13 -3 36 -10 51 -6 15 -10
31 -9 35 1 4 -4 31 -11 60 -7 29 -10 59 -7 68 3 8 2 13 -3 10 -4 -3 -9 9 -10
27 -4 55 -4 57 -14 57 -5 0 -7 6 -4 14 3 8 -1 35 -9 61 -7 27 -15 62 -16 79
-1 17 -5 38 -9 46 -4 8 -9 29 -12 45 -3 17 -10 51 -16 77 -6 27 -11 51 -10 55
1 5 0 10 -1 13 -5 12 -11 57 -12 83 -1 15 -5 27 -10 27 -4 0 -8 12 -7 28 0 15
-2 38 -6 52 -4 14 -8 41 -9 62 0 20 -4 34 -8 31 -13 -7 -9 12 5 26 6 8 7 11 1
8 -11 -6 -26 47 -40 137 -3 21 -8 48 -10 60 -2 11 -9 53 -15 91 -6 39 -19 99
-29 135 -11 36 -23 82 -26 103 -3 20 -11 37 -16 37 -12 0 -637 -1262 -638
-1288 0 -4 -7 -15 -15 -25 -12 -17 -16 -12 -35 55 -11 40 -50 163 -85 273 -74
231 -94 301 -136 462 -16 65 -36 138 -44 163 -8 25 -17 60 -20 79 -3 19 -10
43 -16 53 -6 11 -8 22 -5 25 2 3 1 16 -4 29 -6 14 -12 37 -15 51 -4 26 -65
235 -70 241 -1 1 -9 -15 -18 -35z"/>
</g>
</svg>
